<?xml version="1.0" standalone="no"?>
<!DOCTYPE svg PUBLIC "-//W3C//DTD SVG 20010904//EN"
 "http://www.w3.org/TR/2001/REC-SVG-20010904/DTD/svg10.dtd">
<svg version="1.0" xmlns="http://www.w3.org/2000/svg"
 width="500.000000pt" height="500.000000pt" viewBox="0 0 500.000000 500.000000"
 preserveAspectRatio="xMidYMid meet">

<g transform="translate(0.000000,500.000000) scale(0.100000,-0.100000)"
fill="#000000" stroke="none">
<path d="M2440 3793 c-55 -8 -70 -14 -70 -26 0 -6 -30 -28 -67 -47 -110 -57
-257 -211 -322 -338 -21 -41 -22 -42 -45 -26 -28 18 -110 26 -143 13 -33 -12
-119 14 -153 46 -64 61 -65 147 -3 252 22 38 44 78 47 91 18 56 -87 1 -171
-91 -67 -74 -88 -133 -88 -252 0 -78 4 -97 28 -146 56 -114 136 -180 240 -194
26 -4 47 -11 47 -16 0 -15 65 -21 119 -11 l52 9 -3 -26 c-2 -21 -16 -32 -68
-59 -120 -60 -247 -62 -490 -8 -216 49 -299 53 -433 20 -155 -39 -288 -134
-369 -265 -23 -37 -58 -156 -52 -174 9 -22 18 -19 37 14 20 35 121 113 191
148 73 37 174 55 244 44 77 -13 119 -32 194 -89 216 -164 349 -221 516 -222
74 0 191 25 245 51 l37 19 0 -119 c0 -66 3 -122 8 -124 4 -3 43 24 87 59 43
35 87 66 97 70 14 4 18 16 18 52 0 83 15 117 61 137 32 15 47 30 69 75 l29 57
-59 -1 c-56 -1 -61 1 -101 39 -62 60 -86 129 -56 168 11 15 16 14 58 -13 42
-28 83 -39 192 -56 l38 -5 -2 -135 -2 -136 51 -51 52 -52 51 51 51 51 -1 137
c-2 105 1 136 11 136 69 1 160 25 210 54 l56 34 12 -29 c22 -52 -12 -127 -80
-174 -35 -24 -46 -27 -90 -21 l-51 7 30 -58 c23 -47 37 -62 70 -76 45 -20 61
-55 61 -138 0 -41 3 -47 33 -61 17 -9 65 -44 105 -77 l72 -62 0 126 c0 69 2
125 5 125 2 0 40 -12 82 -26 233 -79 458 -19 720 193 23 19 68 46 100 60 147
67 367 4 514 -149 25 -27 50 -48 54 -48 24 0 -28 155 -77 228 -30 43 -117 121
-179 159 -53 33 -176 71 -267 82 -95 12 -178 4 -337 -34 -153 -36 -289 -50
-366 -37 -83 15 -170 59 -187 96 -8 15 -12 29 -10 30 1 2 31 -1 66 -7 54 -9
68 -8 95 6 18 9 46 19 62 22 83 18 130 47 185 116 106 134 109 329 7 458 -56
70 -173 148 -194 128 -3 -3 9 -32 27 -64 68 -120 70 -127 70 -182 0 -100 -71
-164 -178 -161 -31 1 -74 2 -94 3 -24 1 -48 -7 -67 -21 l-29 -21 -18 37 c-43
92 -158 237 -231 293 -30 22 -80 52 -112 68 -31 15 -56 32 -54 38 7 21 -113
38 -187 26z m155 -42 c9 -15 -4 -17 -103 -13 -53 2 -90 7 -87 13 8 12 182 12
190 0z m-945 -16 c0 -3 -14 -27 -31 -55 -17 -27 -35 -67 -41 -87 -12 -42 -17
-133 -7 -127 4 2 10 -3 13 -12 4 -10 2 -13 -7 -8 -6 4 -1 -5 12 -19 15 -16 21
-32 17 -43 -6 -15 -4 -15 10 -3 15 12 16 11 9 -11 -7 -23 -7 -24 10 -10 17 14
18 13 12 -2 -3 -10 -1 -20 5 -24 7 -4 8 -3 4 4 -4 7 -1 12 8 12 8 0 17 -4 21
-9 3 -6 14 -8 25 -6 11 2 20 -2 20 -8 0 -7 4 -6 10 3 8 12 10 10 11 -10 0 -23
1 -23 9 -5 5 11 9 14 9 7 1 -7 6 -10 11 -7 6 4 10 -7 10 -26 0 -45 -22 -167
-28 -151 -3 10 -8 8 -19 -5 -13 -17 -14 -16 -8 7 l6 25 -15 -25 -15 -25 -1 24
c0 24 0 24 -16 5 -14 -18 -15 -18 -9 6 l6 25 -19 -24 -19 -23 4 33 4 34 -15
-30 c-14 -30 -14 -30 -15 -5 -1 20 -3 22 -11 10 -8 -12 -10 -12 -11 5 l0 20
-9 -20 c-7 -17 -9 -16 -10 10 -1 26 -3 27 -10 10 -7 -16 -9 -12 -16 25 -8 43
-8 44 -14 15 l-6 -30 -17 35 c-9 19 -14 25 -11 13 8 -33 -3 -28 -22 10 -23 43
-44 124 -44 168 0 66 37 165 82 216 54 62 118 110 118 88z m1761 -27 c40 -31
69 -70 38 -53 -12 7 -12 5 -1 -6 7 -8 18 -14 25 -14 7 0 25 -26 41 -57 52
-105 45 -234 -20 -333 -14 -22 -23 -33 -21 -25 3 8 8 24 12 35 3 11 -3 4 -13
-15 -17 -29 -20 -31 -25 -15 -3 15 -5 13 -6 -8 0 -16 -5 -26 -11 -22 -5 3 -10
-2 -10 -12 -1 -17 -1 -17 -14 0 -13 17 -15 16 -24 -10 l-10 -28 -10 25 -11 25
-1 -30 c0 -23 -3 -26 -10 -15 -8 12 -10 12 -16 -4 -5 -14 -9 -15 -15 -4 -7 10
-9 8 -9 -7 -1 -20 -1 -20 -15 -1 -15 20 -15 20 -16 0 -1 -17 -2 -17 -6 -1 -2
9 -9 15 -14 12 -15 -10 -29 43 -29 111 0 58 2 66 23 73 14 5 25 4 29 -3 6 -8
8 -8 8 1 0 6 9 10 20 8 11 -2 20 2 20 8 0 7 4 6 10 -3 7 -11 10 -11 10 -2 0 8
5 10 12 6 8 -5 9 -2 4 11 -6 16 -4 16 11 4 15 -12 16 -12 10 5 -6 14 -4 17 8
12 11 -4 14 -2 9 6 -4 6 1 17 10 24 10 7 17 15 17 18 -2 19 0 27 7 23 9 -7 7
120 -3 158 -5 17 -18 44 -30 60 -32 43 -47 75 -36 75 5 0 29 -15 52 -32z
m-973 -4 c8 -15 10 -15 15 0 8 20 46 21 75 0 12 -8 22 -10 22 -5 0 6 9 11 20
11 19 0 20 -7 20 -157 0 -87 3 -182 6 -210 7 -52 6 -53 -20 -53 -18 0 -26 6
-27 18 -1 16 -2 16 -6 0 -2 -10 -13 -18 -24 -18 -23 0 -24 10 -4 36 25 33 17
34 -17 3 -39 -35 -48 -36 -48 -6 1 14 15 32 40 49 23 16 40 36 40 47 0 16 -6
13 -35 -16 -21 -21 -41 -33 -50 -29 -12 4 -15 -4 -15 -39 0 -25 -4 -45 -10
-45 -6 0 -10 78 -10 215 0 205 5 240 28 199z m-60 -206 l-3 -213 -40 -2 c-22
-2 -82 -8 -134 -13 -52 -6 -96 -9 -98 -6 -3 2 0 14 6 25 10 17 9 20 -5 14 -12
-4 -7 9 16 43 23 34 27 43 12 30 -31 -27 -27 -8 5 26 26 27 21 40 -7 16 -7 -7
13 19 45 57 l59 70 -54 -50 c-30 -28 -44 -37 -32 -21 12 15 19 33 15 39 -3 5
-2 7 4 4 5 -3 27 13 49 36 l39 42 -42 -40 c-51 -46 -55 -39 -12 19 l31 41 -37
-40 c-61 -66 -107 -144 -140 -239 -24 -67 -38 -92 -54 -98 -21 -7 -22 -6 -16
25 22 99 101 230 202 333 40 41 156 114 181 114 10 0 12 -46 10 -212z m338
172 c72 -40 125 -96 198 -209 44 -69 97 -221 76 -221 -5 0 -10 7 -10 16 0 54
-128 293 -150 279 -5 -3 -12 0 -16 6 -5 8 -3 9 5 4 10 -6 11 -3 3 11 -11 20
-42 50 -77 74 -11 7 0 -5 25 -27 51 -47 50 -68 -1 -27 -19 15 -7 0 26 -34 62
-65 67 -86 6 -29 -26 24 -23 18 13 -25 49 -59 53 -76 7 -35 -14 12 -9 3 12
-21 43 -49 49 -67 11 -31 -26 23 -25 22 5 -27 33 -54 38 -70 20 -58 -6 3 -3
-8 5 -25 19 -37 33 -35 -134 -18 l-115 12 -3 213 c-2 166 0 212 10 212 7 0 45
-18 84 -40z m-877 -334 c31 -37 1 -219 -40 -244 -11 -7 -23 -12 -25 -10 -2 2
3 28 11 58 8 30 15 90 15 133 0 59 3 77 14 77 7 0 19 -6 25 -14z m61 -8 c0 -5
4 -7 9 -4 5 4 12 -7 16 -24 7 -32 -37 -184 -57 -196 -8 -5 -9 1 -4 17 14 48
18 95 8 80 -10 -14 -9 14 2 96 2 12 -1 20 -5 17 -10 -6 -11 -1 -3 20 6 15 34
11 34 -6z m1307 -60 c-1 -46 5 -105 12 -131 8 -26 11 -51 7 -54 -15 -15 -54
49 -65 106 -22 114 -14 161 29 161 16 0 18 -10 17 -82z m-78 40 c-10 -35 -3
-136 13 -177 4 -13 7 -26 4 -28 -6 -7 -52 93 -65 141 -11 42 -5 90 10 80 5 -3
9 0 9 5 0 6 9 11 19 11 17 0 18 -4 10 -32z m-399 -54 c119 -9 295 -35 304 -45
20 -19 -6 -21 -91 -5 -244 44 -726 40 -950 -9 -16 -4 -23 -1 -23 10 0 8 2 15
5 15 2 0 55 7 117 16 204 29 425 36 638 18z m-381 -51 c-13 -16 -12 -16 14 0
40 26 108 20 123 -11 l11 -23 17 26 c21 32 69 34 129 4 42 -20 42 -20 17 0
l-25 21 63 0 c35 0 61 -4 58 -9 -3 -5 14 -6 38 -4 36 4 47 2 62 -15 14 -16 22
-19 37 -11 26 14 64 3 78 -22 l11 -21 14 21 c9 12 22 21 30 21 18 0 19 -26 0
-33 -15 -6 -29 -47 -16 -47 5 0 14 8 19 18 8 14 10 10 11 -21 0 -36 -2 -38
-27 -35 -21 2 -29 9 -31 26 l-4 24 -23 -22 c-20 -19 -32 -22 -71 -17 -50 5
-97 34 -102 61 -2 10 5 27 15 38 18 20 18 21 -7 13 -14 -4 -36 -13 -49 -20
l-25 -13 30 -15 c17 -9 36 -23 43 -31 12 -14 10 -16 -8 -16 -11 0 -21 -4 -21
-9 0 -5 65 -14 145 -21 131 -11 168 -20 152 -37 -3 -3 -93 2 -200 11 -239 20
-511 20 -722 1 -198 -18 -185 -18 -185 -1 0 11 23 16 93 22 75 6 85 9 55 14
-21 4 -47 15 -57 24 -19 17 -20 17 -23 -6 -2 -17 -9 -23 -28 -23 -20 0 -25 5
-27 28 -1 15 2 27 8 27 5 0 9 -4 9 -10 0 -5 5 -10 10 -10 17 0 11 29 -10 50
-25 25 -25 30 0 30 11 0 23 -7 27 -16 5 -13 8 -12 25 5 22 24 61 27 80 7 10
-11 16 -9 32 12 16 21 25 23 60 19 23 -3 50 -8 61 -12 l20 -8 -20 16 c-19 15
-17 16 39 17 54 0 57 -1 45 -17z m798 -15 c-3 -7 -5 -2 -5 12 0 14 2 19 5 13
2 -7 2 -19 0 -25z m-747 -204 l0 -47 -62 7 c-63 6 -152 42 -149 61 1 9 71 18
174 23 l37 2 0 -46z m153 19 c3 -16 2 -111 -1 -213 -6 -178 -7 -183 -18 -125
l-12 60 -3 -50 c-2 -33 -5 -16 -8 50 l-6 100 -8 -143 -9 -144 -24 23 c-24 22
-24 23 -24 246 l0 223 54 0 c51 0 54 -2 59 -27z m250 10 c46 -12 -51 -62 -138
-70 l-65 -6 0 47 0 48 93 -7 c50 -4 100 -9 110 -12z m-758 -23 l46 -20 -16
-29 c-29 -57 -12 -126 51 -200 27 -33 91 -71 119 -71 27 0 -1 -37 -43 -59 -45
-23 -62 -56 -69 -134 -5 -52 -9 -59 -37 -74 -17 -9 -47 -28 -67 -44 l-36 -28
-5 297 c-4 266 -2 382 7 382 2 0 24 -9 50 -20z m969 -72 c3 -51 4 -163 2 -248
-2 -85 -4 -197 -5 -248 l-1 -94 -37 30 c-21 16 -52 36 -69 45 -28 15 -32 21
-36 75 -7 67 -29 118 -57 127 -24 7 -71 44 -71 55 0 4 16 11 36 15 47 8 125
85 148 146 15 40 16 52 5 90 -7 24 -13 48 -14 52 0 7 69 44 87 46 3 1 9 -41
12 -91z m-1669 11 c116 -30 145 -33 270 -33 123 -1 147 2 193 22 67 28 74 27
37 -4 -27 -23 -27 -24 -5 -14 14 7 35 22 48 33 12 11 22 16 22 11 0 -17 -53
-62 -110 -93 -30 -17 -49 -31 -42 -31 15 0 86 35 125 62 15 11 27 15 27 11 0
-19 -58 -63 -125 -95 -67 -32 -75 -33 -185 -32 -91 1 -127 5 -174 22 -72 27
-85 23 -19 -6 134 -57 275 -66 396 -23 31 11 57 18 57 16 0 -11 -111 -60 -160
-71 -47 -11 -50 -12 -20 -13 19 0 67 10 105 24 74 26 68 11 -10 -26 -22 -10
-33 -19 -25 -19 9 0 51 18 94 40 l79 39 -29 -30 c-49 -51 -128 -82 -223 -87
-136 -8 -235 23 -372 115 -130 87 -233 124 -344 121 l-60 -1 55 -7 c30 -4 44
-7 30 -8 -53 -4 -178 -45 -240 -79 -36 -20 -94 -64 -129 -97 -73 -70 -67 -46
11 40 40 45 43 51 13 24 -21 -19 -49 -46 -62 -60 l-24 -25 12 25 c66 138 248
259 424 283 87 12 234 -2 360 -34z m2770 11 c89 -28 136 -52 197 -101 81 -63
157 -166 143 -190 -4 -5 -1 -18 7 -27 7 -9 -16 10 -52 43 -36 33 -94 77 -129
98 -62 36 -204 85 -260 89 -14 0 -3 4 24 8 l50 7 -60 1 c-102 3 -205 -34 -327
-116 -40 -27 -91 -58 -114 -70 -110 -56 -286 -69 -386 -28 -51 21 -144 84
-136 92 2 1 39 -15 82 -37 43 -21 85 -39 94 -39 8 0 -13 14 -47 31 -72 36 -76
49 -7 19 26 -11 73 -22 104 -25 l57 -5 -55 13 c-56 13 -134 49 -144 66 -3 5
17 0 45 -10 109 -42 243 -35 377 18 79 32 76 40 -4 11 -48 -18 -81 -22 -174
-23 -108 0 -119 2 -180 31 -67 32 -130 78 -130 96 0 5 12 1 28 -10 38 -27 109
-62 124 -62 7 1 -5 10 -27 22 -54 29 -104 67 -117 91 -9 17 -5 16 23 -5 36
-27 91 -57 74 -41 -5 5 -23 19 -39 31 -36 28 -35 27 55 -4 69 -24 82 -26 199
-21 96 4 157 13 265 40 126 31 152 35 255 32 85 -2 133 -9 185 -25z m-2901
-165 c217 -114 265 -136 331 -150 91 -19 219 -19 281 0 27 8 53 15 59 15 19 0
-36 -32 -88 -51 -40 -14 -44 -17 -17 -13 19 4 50 13 69 20 48 20 61 17 25 -6
-58 -37 -143 -60 -228 -61 l-81 -1 55 -10 c30 -5 70 -7 88 -6 17 2 32 1 32 -3
0 -13 -88 -22 -160 -17 -104 8 -173 43 -429 223 -112 79 -228 94 -364 48 -68
-24 -64 -15 10 22 72 36 122 45 232 41 90 -3 97 -5 185 -51z m2957 26 c55 -21
119 -61 74 -46 -127 42 -234 44 -317 7 -26 -11 -82 -47 -125 -80 -189 -143
-297 -192 -423 -191 -95 1 -153 17 -67 18 31 1 57 6 57 11 0 6 -22 10 -50 10
-50 0 -141 29 -195 62 -39 23 -22 23 50 -2 70 -24 99 -25 35 -2 -52 20 -93 42
-88 47 2 3 26 -2 53 -10 69 -21 206 -19 300 5 89 23 142 47 274 124 52 31 113
60 135 65 67 16 223 7 287 -18z"/>
<path d="M1576 3412 c-2 -4 -1 -14 3 -21 6 -10 10 -9 14 3 6 16 -8 32 -17 18z"/>
<path d="M1667 3269 c12 -12 24 -21 27 -18 2 2 -8 13 -22 23 l-27 19 22 -24z"/>
<path d="M3521 3384 c0 -11 3 -14 6 -6 3 7 2 16 -1 19 -3 4 -6 -2 -5 -13z"/>
<path d="M3511 3344 c0 -11 3 -14 6 -6 3 7 2 16 -1 19 -3 4 -6 -2 -5 -13z"/>
<path d="M3496 3305 c-9 -26 -7 -32 5 -12 6 10 9 21 6 23 -2 3 -7 -2 -11 -11z"/>
<path d="M3329 3273 c-13 -16 -12 -17 4 -4 9 7 17 15 17 17 0 8 -8 3 -21 -13z"/>
<path d="M2472 3691 c-10 -6 -5 -12 18 -21 20 -8 27 -16 20 -20 -7 -5 -2 -10
14 -14 22 -5 26 -12 26 -43 0 -31 -8 -43 -57 -89 -41 -37 -51 -52 -35 -47 13
3 22 1 22 -6 0 -7 5 -9 10 -6 6 3 10 15 10 25 0 25 17 35 35 20 9 -8 15 -38
18 -88 1 -43 3 4 4 103 1 99 -2 170 -6 157 -6 -24 -6 -23 -29 7 -24 33 -30 35
-50 22z"/>
<path d="M2437 3648 c1 -18 2 -42 3 -53 l1 -20 11 20 c6 11 18 26 27 34 14 12
13 12 -6 6 -14 -4 -23 -2 -23 4 0 6 5 11 11 11 6 0 4 7 -5 15 -20 21 -21 20
-19 -17z"/>
<path d="M2502 3607 c-12 -13 -22 -29 -22 -35 0 -7 -9 -12 -20 -12 -15 0 -20
-7 -20 -27 l0 -27 40 39 c37 36 58 71 48 81 -3 2 -14 -6 -26 -19z"/>
<path d="M2440 3425 c0 -16 16 -20 24 -6 3 5 -1 11 -9 15 -9 3 -15 0 -15 -9z"/>
<path d="M2249 3623 c-13 -16 -12 -17 4 -4 9 7 17 15 17 17 0 8 -8 3 -21 -13z"/>
<path d="M1882 3250 c0 -19 2 -27 5 -17 2 9 2 25 0 35 -3 9 -5 1 -5 -18z"/>
<path d="M2169 3173 c-13 -15 -12 -15 9 -2 20 12 24 12 32 -1 5 -8 10 -19 10
-25 -1 -16 -36 -54 -62 -65 -16 -7 11 -8 87 -2 61 4 197 6 304 5 107 -2 192
-1 190 1 -22 23 -158 106 -172 106 -25 0 -33 -28 -13 -48 15 -15 16 -15 16 1
0 9 6 17 14 17 17 0 85 -42 86 -52 0 -5 -27 -8 -61 -8 -55 0 -64 3 -90 31 -19
21 -29 26 -29 16 0 -28 -41 -47 -102 -47 -58 0 -77 13 -38 25 12 4 30 16 40
28 11 11 20 15 20 9 0 -7 11 -12 25 -12 18 0 25 5 25 20 0 40 -49 25 -136 -41
-38 -29 -60 -39 -87 -39 -21 0 -37 4 -37 8 0 4 29 25 65 45 36 21 65 39 65 40
0 2 -9 3 -19 3 -11 0 -18 -4 -15 -7 10 -16 -17 -19 -45 -4 -39 20 -65 19 -82
-2z"/>
<path d="M2695 3181 c-3 -5 -1 -12 4 -15 5 -3 11 1 15 9 6 16 -9 21 -19 6z"/>
<path d="M2836 3144 c-3 -9 -11 -12 -18 -8 -10 6 -10 4 0 -8 21 -26 69 -32 97
-14 29 19 34 42 8 31 -39 -16 -51 -16 -66 -1 -13 14 -16 14 -21 0z"/>
<path d="M2065 3141 c-6 -11 33 -41 53 -41 7 0 27 7 44 16 28 14 29 17 14 26
-12 7 -21 7 -29 -1 -14 -14 -47 -14 -47 -1 0 13 -27 13 -35 1z"/>
<path d="M2016 2675 c3 -148 7 -271 9 -273 3 -3 20 7 38 21 27 21 35 35 40 71
10 67 32 114 65 133 l29 17 -47 37 c-74 58 -117 129 -131 214 -5 29 -6 -63 -3
-220z m101 24 l54 -55 -22 -20 c-26 -24 -47 -63 -65 -124 -8 -26 -21 -53 -29
-60 -13 -11 -15 2 -15 109 0 66 2 121 5 121 3 0 16 -18 31 -41 24 -38 26 -40
39 -22 26 33 10 82 -18 54 -20 -20 -27 -12 -27 29 0 22 -4 40 -10 40 -5 0 -10
-9 -10 -20 0 -11 -4 -20 -10 -20 -6 0 -10 26 -10 57 0 57 0 57 16 33 9 -14 41
-50 71 -81z"/>
<path d="M2056 2604 c-9 -24 -7 -54 4 -54 6 0 10 16 10 35 0 38 -4 44 -14 19z"/>
<path d="M2056 2504 c-4 -14 -5 -28 -3 -31 3 -2 8 8 11 23 4 14 5 28 3 31 -3
2 -8 -8 -11 -23z"/>
<path d="M2977 2901 c-3 -38 -15 -78 -33 -111 -28 -51 -115 -140 -138 -140 -6
0 4 -9 22 -20 38 -23 71 -88 72 -138 0 -24 9 -41 32 -63 59 -53 58 -56 58 251
0 154 -2 280 -4 280 -2 0 -6 -27 -9 -59z m-7 -158 c-1 -43 -2 -46 -14 -30 -12
16 -14 16 -20 1 -9 -25 -7 -64 4 -64 6 0 10 5 10 10 0 6 4 10 9 10 11 0 9
-216 -3 -227 -11 -12 -35 25 -42 66 -8 45 -25 79 -57 113 l-25 27 34 26 c18
14 47 46 64 70 17 25 33 45 35 45 3 0 5 -21 5 -47z"/>
<path d="M2887 2664 c-11 -12 -8 -49 5 -62 10 -10 15 -7 25 10 12 23 12 22 13
-7 0 -16 5 -37 10 -45 19 -29 11 33 -8 70 -19 35 -33 45 -45 34z"/>
<path d="M2936 2503 c9 -38 14 -42 14 -10 0 14 -5 29 -10 32 -7 4 -8 -3 -4
-22z"/>
<path d="M1168 2953 c7 -3 16 -2 19 1 4 3 -2 6 -13 5 -11 0 -14 -3 -6 -6z"/>
<path d="M1230 2935 c19 -7 42 -13 50 -13 8 0 -1 6 -20 13 -19 7 -42 13 -50
13 -8 0 1 -6 20 -13z"/>
<path d="M1075 2931 c53 -5 114 -20 180 -45 55 -21 116 -44 135 -51 45 -17
177 -35 238 -34 32 1 20 4 -39 10 -82 8 -128 22 -314 94 -57 23 -89 28 -175
30 -103 3 -104 3 -25 -4z"/>
<path d="M1290 2846 c0 -3 9 -10 20 -16 11 -6 20 -8 20 -6 0 3 -9 10 -20 16
-11 6 -20 8 -20 6z"/>
<path d="M1718 2813 c7 -3 16 -2 19 1 4 3 -2 6 -13 5 -11 0 -14 -3 -6 -6z"/>
<path d="M1708 2663 c7 -3 16 -2 19 1 4 3 -2 6 -13 5 -11 0 -14 -3 -6 -6z"/>
<path d="M3790 2925 c-30 -7 -92 -29 -137 -49 -107 -45 -150 -57 -248 -66 -73
-7 -75 -7 -24 -9 79 -2 215 24 281 53 105 47 183 68 273 76 l90 7 -90 1 c-49
0 -115 -6 -145 -13z"/>
<path d="M3718 2923 c7 -3 16 -2 19 1 4 3 -2 6 -13 5 -11 0 -14 -3 -6 -6z"/>
<path d="M4395 2708 c27 -32 51 -55 54 -53 3 3 -19 29 -48 58 l-54 52 48 -57z"/>
<path d="M3278 2663 c7 -3 16 -2 19 1 4 3 -2 6 -13 5 -11 0 -14 -3 -6 -6z"/>
<path d="M1170 2743 c36 -25 85 -64 110 -86 45 -39 133 -89 180 -101 14 -4 -1
7 -32 24 -55 29 -93 62 -52 46 10 -5 28 -10 39 -13 l20 -4 -20 12 c-11 6 -44
27 -73 46 -63 41 -213 123 -227 123 -5 0 20 -21 55 -47z"/>
<path d="M1538 2573 c7 -3 16 -2 19 1 4 3 -2 6 -13 5 -11 0 -14 -3 -6 -6z"/>
<path d="M1593 2563 c9 -2 25 -2 35 0 9 3 1 5 -18 5 -19 0 -27 -2 -17 -5z"/>
<path d="M1678 2563 c12 -2 32 -2 45 0 12 2 2 4 -23 4 -25 0 -35 -2 -22 -4z"/>
<path d="M1528 2533 c7 -3 16 -2 19 1 4 3 -2 6 -13 5 -11 0 -14 -3 -6 -6z"/>
<path d="M3805 2752 c-38 -21 -108 -62 -154 -90 -46 -29 -89 -52 -94 -52 -6 0
-8 -3 -4 -6 3 -3 26 3 51 15 62 27 58 10 -6 -28 -29 -17 -49 -31 -45 -31 22 0
123 58 169 98 29 25 79 65 112 89 71 53 63 54 -29 5z"/>
<path d="M3273 2563 c9 -2 25 -2 35 0 9 3 1 5 -18 5 -19 0 -27 -2 -17 -5z"/>
<path d="M3393 2563 c9 -2 23 -2 30 0 6 3 -1 5 -18 5 -16 0 -22 -2 -12 -5z"/>
<path d="M3458 2533 c7 -3 16 -2 19 1 4 3 -2 6 -13 5 -11 0 -14 -3 -6 -6z"/>
<path d="M3393 2523 c9 -2 25 -2 35 0 9 3 1 5 -18 5 -19 0 -27 -2 -17 -5z"/>
<path d="M484 2215 c14 -13 36 -46 47 -72 52 -124 144 -303 154 -303 12 0 35
41 35 63 0 7 13 39 29 71 l29 59 -34 71 c-36 75 -41 105 -22 124 9 9 -19 12
-126 12 l-139 0 27 -25z m226 -186 c0 -3 -9 -14 -19 -23 -19 -17 -20 -16 -40
23 -12 22 -21 43 -21 46 0 3 18 -5 40 -17 22 -13 40 -26 40 -29z"/>
<path d="M884 2216 l30 -23 -19 -49 c-10 -27 -42 -99 -72 -161 -29 -61 -64
-137 -78 -168 l-25 -56 50 -117 c44 -105 70 -146 70 -111 0 18 119 324 174
447 38 86 44 107 35 129 -13 35 5 87 39 112 l27 20 -130 1 -130 0 29 -24z m56
-200 c0 -18 -22 -85 -48 -147 -27 -63 -52 -123 -57 -134 -7 -17 -9 -13 -15 20
-7 35 -2 54 42 150 27 61 52 118 55 128 9 29 23 19 23 -17z"/>
<path d="M1223 2154 c15 -15 27 -30 27 -35 0 -4 3 -14 6 -23 5 -13 -2 -16 -44
-16 -94 0 -120 -45 -87 -154 19 -62 19 -227 1 -279 -8 -21 -22 -47 -32 -58
-17 -19 -15 -19 70 -19 83 0 86 1 76 19 -5 11 -10 28 -10 38 0 25 40 109 86
180 l37 58 25 -70 c17 -49 25 -93 26 -147 l1 -78 104 0 c86 0 102 2 88 13 -9
6 -26 48 -37 92 -23 87 -77 243 -138 400 l-39 100 -93 3 -94 3 27 -27z m44
-139 c11 -3 28 -16 36 -28 31 -47 29 -63 -12 -128 l-40 -63 -27 58 c-45 99
-42 185 5 172 9 -2 26 -7 38 -11z m126 -24 c30 -45 97 -231 97 -268 0 -57 -27
-8 -77 138 -65 193 -66 200 -20 130z"/>
<path d="M1641 2170 c25 -14 28 -51 31 -315 1 -175 -1 -246 -10 -262 l-13 -23
175 0 176 0 16 25 c16 24 43 122 44 155 0 8 -14 -3 -32 -24 -17 -21 -46 -45
-64 -52 -35 -15 -122 -19 -140 -6 -7 5 -8 83 -5 245 6 221 7 240 25 253 18 12
6 14 -100 14 -80 -1 -114 -4 -103 -10z m128 -202 c1 -21 -1 -38 -3 -38 -2 0
-11 -3 -20 -6 -13 -5 -16 3 -16 48 0 60 20 96 32 56 3 -13 6 -40 7 -60z m1
-193 c0 -75 -10 -93 -30 -56 -14 28 -13 118 3 124 25 11 27 5 27 -68z"/>
<path d="M2119 2171 c23 -15 30 -88 31 -321 0 -177 -3 -231 -14 -252 l-15 -28
100 0 c71 0 98 3 93 11 -11 19 -23 151 -17 196 6 48 7 49 96 58 l67 7 0 -108
c0 -75 -5 -118 -14 -136 l-15 -28 107 0 c62 0 101 4 94 9 -23 14 -34 156 -29
364 4 171 7 200 22 217 18 20 17 20 -95 20 -111 0 -113 0 -95 -19 14 -16 17
-40 19 -132 l1 -113 -35 -7 c-19 -4 -54 -9 -77 -12 l-43 -5 0 116 c0 82 4 125
14 145 l15 27 -112 0 c-67 0 -106 -4 -98 -9z m121 -206 c0 -78 -2 -85 -20 -85
-18 0 -20 7 -20 73 0 68 10 97 32 97 4 0 8 -38 8 -85z m308 25 c3 -50 -6 -69
-30 -70 -10 0 -11 92 -2 115 12 31 29 8 32 -45z m2 -210 c0 -82 -12 -103 -30
-54 -11 29 -13 117 -3 127 3 4 12 7 20 7 10 0 13 -20 13 -80z m-310 -19 c0
-51 -15 -75 -31 -50 -10 16 -12 83 -2 92 3 4 12 7 20 7 9 0 13 -15 13 -49z"/>
<path d="M2825 2144 c37 -55 33 -64 -25 -64 -41 0 -56 -5 -75 -25 -29 -28 -31
-60 -9 -130 19 -61 21 -207 4 -261 -7 -22 -21 -51 -32 -66 l-19 -28 84 0 85 0
-11 29 c-8 23 -7 38 6 73 21 55 101 184 113 181 5 -1 19 -34 32 -75 17 -54 22
-91 20 -141 l-3 -67 105 1 c58 0 99 3 93 6 -7 2 -25 44 -39 91 -27 92 -56 177
-127 382 l-44 125 -91 3 -92 3 25 -37z m28 -128 c22 -9 39 -26 51 -53 l17 -39
-36 -62 c-21 -34 -39 -62 -42 -62 -8 0 -43 88 -53 138 -8 37 -8 56 0 71 13 25
20 25 63 7z m191 -160 c43 -138 45 -151 26 -151 -10 0 -21 21 -32 60 -10 33
-33 107 -52 165 l-35 105 29 -34 c19 -22 41 -73 64 -145z"/>
<path d="M3216 2166 c18 -14 19 -29 19 -273 0 -142 -3 -273 -7 -291 l-8 -33
152 3 c149 3 151 3 170 29 13 17 21 48 24 90 5 61 4 62 -9 34 -8 -17 -21 -36
-29 -43 -20 -16 -109 -26 -127 -14 -11 8 -13 51 -12 223 2 230 5 257 29 277
13 10 -6 12 -103 12 -105 0 -117 -2 -99 -14z m114 -191 c0 -64 -3 -76 -20 -85
-19 -10 -20 -8 -20 63 0 68 10 97 32 97 4 0 8 -34 8 -75z m0 -217 l-1 -73 -19
24 c-34 40 -23 116 18 121 1 0 2 -33 2 -72z"/>
<path d="M3586 2166 c18 -13 19 -30 22 -276 2 -215 0 -266 -12 -291 l-15 -30
156 3 156 3 20 27 c15 19 22 47 24 90 3 52 1 58 -7 38 -6 -13 -18 -32 -27 -42
-18 -20 -90 -33 -123 -23 -21 7 -22 8 -18 247 3 224 4 241 22 254 18 12 6 14
-99 14 -105 0 -117 -2 -99 -14z m114 -191 c0 -41 -2 -75 -4 -75 -2 0 -11 -3
-20 -6 -14 -5 -16 4 -16 63 0 64 10 93 32 93 4 0 8 -34 8 -75z m0 -217 l-1
-73 -19 24 c-32 37 -23 121 12 121 4 0 8 -33 8 -72z"/>
<path d="M4137 2158 c20 -22 43 -61 43 -72 0 -3 -25 -6 -55 -6 -46 0 -60 -4
-80 -25 -29 -28 -31 -59 -10 -129 32 -104 14 -287 -32 -338 -15 -17 -12 -18
71 -18 84 0 86 1 76 21 -13 23 -6 68 17 114 26 51 95 155 104 155 19 0 53
-137 54 -212 l0 -78 98 0 97 0 -14 23 c-9 12 -22 55 -31 95 -8 40 -38 134 -66
210 -28 75 -62 170 -77 210 l-27 72 -94 0 -94 0 20 -22z m34 -138 c26 -7 41
-21 57 -49 l22 -39 -41 -67 c-25 -39 -46 -62 -51 -57 -12 12 -58 142 -58 165
0 21 17 57 28 57 4 0 23 -5 43 -10z m167 -75 c40 -83 83 -228 73 -238 -7 -7
-14 -7 -20 -2 -8 10 -111 309 -111 323 1 13 39 -42 58 -83z"/>
<path d="M1510 1306 l0 -86 39 0 c60 0 87 35 57 75 -10 15 -11 23 -2 37 18 29
-4 52 -53 56 l-41 3 0 -85z m70 59 c18 -21 5 -45 -25 -45 -20 0 -25 5 -25 23
0 39 26 50 50 22z m14 -88 c9 -15 7 -21 -8 -33 -36 -26 -56 -18 -56 22 0 32 2
35 26 32 15 -2 32 -11 38 -21z"/>
<path d="M1755 1378 c-32 -86 -52 -158 -44 -158 5 0 14 12 19 26 8 20 16 25
38 22 16 -2 31 -12 37 -25 10 -24 31 -33 22 -10 -2 6 -15 45 -28 85 -22 69
-34 86 -44 60z m30 -65 c6 -31 5 -33 -20 -33 -21 0 -26 4 -21 16 3 9 9 27 12
41 8 30 19 20 29 -24z"/>
<path d="M1932 1303 c1 -49 3 -71 5 -50 5 48 28 49 50 2 9 -19 20 -35 25 -35
11 0 10 7 -7 40 -14 28 -14 31 5 50 38 38 14 80 -46 80 l-34 0 2 -87z m64 63
c15 -12 17 -18 8 -33 -15 -24 -58 -24 -62 0 -9 44 18 59 54 33z"/>
<path d="M2130 1305 l0 -85 38 0 c21 0 43 5 50 12 15 15 16 50 1 65 -8 8 -8
17 0 32 19 35 -2 61 -49 61 l-40 0 0 -85z m64 62 c23 -17 11 -47 -20 -47 -20
0 -24 5 -24 30 0 32 15 38 44 17z m13 -83 c8 -22 -9 -48 -36 -52 -18 -3 -21 1
-21 32 0 32 3 36 25 36 15 0 28 -7 32 -16z"/>
<path d="M2330 1305 l0 -85 48 2 c43 1 44 2 10 5 -36 4 -38 6 -38 39 0 31 2
34 30 34 17 0 30 5 30 10 0 6 -14 10 -31 10 -27 0 -30 3 -27 28 2 22 9 28 38
33 33 6 32 6 -12 8 l-48 1 0 -85z"/>
<path d="M2520 1311 c0 -44 5 -83 10 -86 6 -4 10 8 10 30 0 29 3 36 17 33 10
-2 24 -17 33 -33 20 -40 19 -39 25 -33 3 3 -2 21 -10 41 -9 23 -11 37 -5 37
18 0 31 49 20 71 -8 14 -21 19 -55 19 l-45 0 0 -79z m83 48 c16 -26 1 -49 -33
-49 -26 0 -30 3 -30 28 0 16 3 32 7 36 12 11 45 2 56 -15z"/>
<path d="M2732 1378 c-21 -21 -13 -48 21 -68 53 -31 58 -39 47 -60 -14 -26
-46 -26 -62 0 -16 25 -30 26 -21 3 9 -24 23 -33 53 -33 63 0 68 58 9 95 -26
17 -39 32 -37 43 4 22 46 28 54 8 3 -9 10 -16 15 -16 6 0 5 9 -1 20 -12 23
-59 27 -78 8z"/>
<path d="M2920 1306 c0 -51 4 -86 10 -86 6 0 10 18 10 40 0 40 0 40 39 40 40
0 40 0 44 -42 2 -24 4 -2 4 47 0 50 -2 73 -4 53 -4 -38 -5 -38 -48 -38 -43 0
-44 1 -40 30 2 16 -1 32 -6 35 -5 4 -9 -29 -9 -79z"/>
<path d="M3151 1364 c-25 -32 -27 -74 -6 -114 13 -24 22 -30 49 -30 45 0 68
27 68 84 2 81 -66 117 -111 60z m79 1 c16 -19 16 -84 1 -113 -25 -48 -81 -10
-81 55 0 55 52 92 80 58z"/>
<path d="M3370 1305 c0 -50 4 -85 10 -85 6 0 10 16 10 35 0 30 3 35 24 35 29
0 56 24 56 50 0 29 -28 50 -66 50 l-34 0 0 -85z m68 63 c18 -18 14 -46 -7 -58
-33 -17 -41 -11 -41 30 0 32 4 40 18 40 10 0 23 -5 30 -12z"/>
<path d="M798 1263 c106 -2 277 -2 380 0 103 1 16 2 -193 2 -209 0 -293 -1
-187 -2z"/>
<path d="M3838 1263 c106 -2 277 -2 380 0 103 1 16 2 -193 2 -209 0 -293 -1
-187 -2z"/>
</g>
</svg>
